<svg xmlns="http://www.w3.org/2000/svg" width="897" height="994" viewBox="0 0 897 994" fill="none"><path fill-rule="evenodd" clip-rule="evenodd" d="M345.532 -852.03C381.452 -758.591 424.297 -633.227 423.287 -511.06C422.956 -471.047 417.922 -431.362 406.402 -393.258C405.354 -364.774 401.804 -336.534 395.105 -308.99C395.102 -308.307 395.097 -307.623 395.092 -306.939C394.895 -283.166 393.039 -259.51 389.148 -236.231C389.483 -227.736 389.624 -219.245 389.554 -210.769C389.509 -205.394 389.38 -200.025 389.162 -194.664C419.954 -108.575 449.771 -4.1889 448.926 97.9629C448.421 159.125 436.925 219.52 408.077 274.677C379.239 329.814 333.143 379.557 263.623 419.643C101.678 513.021 -25.9251 469.46 -123.945 435.997C-133.047 432.89 -141.894 429.87 -150.49 427.054C-201.189 410.449 -242.72 401.141 -276.51 422.145C-310.169 443.068 -336.646 494.453 -356.409 601.334L-359.584 600.176C-339.748 492.899 -312.908 439.731 -277.838 417.931C-242.899 396.213 -200.29 406.012 -149.745 422.566C-141.138 425.386 -132.289 428.406 -123.192 431.51C-25.2018 464.95 101.45 508.172 262.377 415.38C331.493 375.527 377.039 326.237 405.433 271.948C433.818 217.678 445.147 158.255 445.646 97.9094C446.459 -0.440286 418.509 -101.149 388.707 -185.619C388.629 -184.319 388.546 -183.019 388.457 -181.72C388.849 -177.793 389.204 -173.863 389.521 -169.932C407.959 -104.876 421.553 -34.4037 420.979 35.0364C420.474 96.1988 408.978 156.594 380.13 211.75C351.292 266.887 305.196 316.631 235.676 356.717C73.7313 450.095 -53.8723 406.533 -151.892 373.071L-151.908 373.066C-161.005 369.96 -169.846 366.942 -178.437 364.128C-229.136 347.522 -270.667 338.215 -304.457 359.219C-338.116 380.142 -364.593 431.527 -384.356 538.408L-387.532 537.249C-367.695 429.972 -340.855 376.805 -305.785 355.005C-270.846 333.286 -228.237 343.085 -177.692 359.64C-169.087 362.459 -160.239 365.478 -151.144 368.582L-151.139 368.584C-53.1487 402.024 73.5028 445.245 234.43 352.454C303.546 312.601 349.092 263.311 377.486 209.022C405.871 154.752 417.2 95.3285 417.699 34.9829C418.205 -26.2295 407.569 -88.3556 392.279 -146.912C398.395 -110.956 401.969 -74.3595 401.669 -38.0458C401.163 23.1166 389.668 83.5117 360.82 138.668C331.982 193.805 285.886 243.549 216.366 283.634C54.421 377.013 -73.1826 333.451 -171.202 299.989C-180.305 296.881 -189.152 293.861 -197.748 291.046C-248.446 274.44 -289.977 265.132 -323.767 286.137C-357.426 307.059 -383.904 358.445 -403.666 465.325L-406.842 464.167C-387.006 356.89 -360.165 303.723 -325.095 281.923C-290.156 260.204 -247.547 270.003 -197.003 286.558C-188.395 289.377 -179.546 292.397 -170.449 295.501C-72.4589 328.942 54.1925 372.163 215.12 279.372C284.236 239.519 329.781 190.229 358.176 135.94C386.56 81.6698 397.89 22.2463 398.388 -38.0993C398.646 -69.2878 396.011 -100.713 391.343 -131.783C391.393 -128.029 391.403 -124.277 391.372 -120.527C390.866 -59.3647 379.371 1.03036 350.523 56.1866C321.685 111.324 275.589 161.067 206.069 201.153C44.124 294.531 -83.4796 250.97 -181.499 217.507L-181.515 217.502C-190.612 214.397 -199.454 211.378 -208.045 208.564C-258.743 191.959 -300.275 182.651 -334.064 203.655C-367.723 224.578 -394.201 275.963 -413.963 382.844L-417.139 381.686C-397.303 274.409 -370.462 221.241 -335.392 199.441C-300.453 177.723 -257.844 187.522 -207.3 204.077C-198.692 206.896 -189.843 209.916 -180.746 213.02C-82.756 246.46 43.8955 289.682 204.823 196.89C273.939 157.037 319.484 107.747 347.879 53.4583C376.263 -0.811553 387.593 -60.235 388.091 -120.581C388.191 -132.628 387.859 -144.711 387.145 -156.795C386.927 -157.974 386.706 -159.153 386.482 -160.331C381.369 -116.626 369.581 -73.969 348.705 -34.0556C319.867 21.0817 273.771 70.8252 204.251 110.911C42.3059 204.289 -85.2976 160.727 -183.317 127.265L-183.333 127.26C-192.43 124.154 -201.272 121.136 -209.863 118.322C-260.562 101.717 -302.093 92.4089 -335.882 113.413C-369.541 134.336 -396.019 185.721 -415.781 292.602L-418.957 291.444C-399.121 184.167 -372.28 130.999 -337.21 109.199C-302.271 87.4805 -259.662 97.2794 -209.118 113.834C-200.512 116.653 -191.664 119.672 -182.569 122.776L-182.564 122.778C-84.574 156.218 42.0774 199.439 203.005 106.648C272.121 66.7952 317.666 17.505 346.061 -36.7839C368.225 -79.1603 379.99 -124.679 384.319 -171.325C383.245 -176.597 382.121 -181.85 380.952 -187.083C380.389 -188.948 379.823 -190.808 379.253 -192.663C373.032 -171.295 364.799 -150.409 354.243 -130.225C325.404 -75.0881 279.309 -25.3445 209.789 14.7412C47.8438 108.119 -79.7597 64.5577 -177.779 31.0955L-177.781 31.0948L-177.783 31.094L-177.85 31.0712L-177.879 31.0614C-186.946 27.9662 -195.76 24.9576 -204.325 22.1524C-255.024 5.54682 -296.555 -3.76095 -330.345 17.2433C-364.003 38.1661 -390.481 89.5514 -410.244 196.432L-413.419 195.274C-393.583 87.9968 -366.742 34.8294 -331.672 13.0293C-296.733 -8.6894 -254.124 1.10952 -203.58 17.6646C-194.984 20.48 -186.146 23.4958 -177.062 26.5958L-177.046 26.6015L-177.026 26.608C-79.0361 60.0483 47.6153 103.27 208.543 10.4782C277.659 -29.3746 323.204 -78.6648 351.599 -132.954C362.678 -154.137 371.159 -176.106 377.411 -198.608C373.871 -209.939 370.219 -221.069 366.511 -231.96C366.299 -231.549 366.085 -231.139 365.871 -230.729C337.033 -175.592 290.937 -125.849 221.417 -85.7629C59.4719 7.61516 -68.1316 -35.9464 -166.151 -69.4086L-166.153 -69.4093L-166.155 -69.4101L-166.222 -69.4329L-166.223 -69.4332L-166.224 -69.4338L-166.242 -69.4399L-166.275 -69.4512L-166.311 -69.4636C-175.357 -72.5512 -184.151 -75.5528 -192.697 -78.3517C-243.395 -94.9573 -284.927 -104.265 -318.716 -83.2608C-352.375 -62.338 -378.853 -10.9526 -398.615 95.9282L-401.791 94.7698C-381.955 -12.5073 -355.114 -65.6746 -320.044 -87.4747C-285.105 -109.193 -242.496 -99.3945 -191.952 -82.8395C-183.356 -80.0241 -174.518 -77.0083 -165.434 -73.9083L-165.417 -73.9026L-165.398 -73.8961C-67.408 -40.4557 59.2435 2.76548 220.171 -90.0259C289.287 -129.879 334.832 -179.169 363.227 -233.458C363.789 -234.532 364.344 -235.609 364.893 -236.687C359.475 -252.431 353.953 -267.659 348.492 -282.257C321.033 -247.783 284.826 -216.389 237.983 -189.38C76.0387 -96.0014 -51.5649 -139.563 -149.584 -173.025L-149.587 -173.026L-149.589 -173.027L-149.655 -173.049L-149.656 -173.05L-149.657 -173.05C-158.734 -176.149 -167.557 -179.16 -176.13 -181.968C-226.829 -198.574 -268.36 -207.882 -302.15 -186.877C-335.809 -165.955 -362.286 -114.569 -382.049 -7.68851L-385.224 -8.84691C-365.388 -116.124 -338.548 -169.291 -303.477 -191.091C-268.538 -212.81 -225.929 -203.011 -175.385 -186.456C-166.789 -183.641 -157.951 -180.625 -148.867 -177.525L-148.851 -177.519L-148.832 -177.513C-50.8413 -144.072 75.8102 -100.851 236.737 -193.643C283.656 -220.696 319.712 -252.098 346.915 -286.46C344.706 -292.33 342.51 -298.094 340.338 -303.744L343.225 -305.934C345.271 -300.612 347.339 -295.187 349.42 -289.665C350.106 -290.555 350.787 -291.446 351.462 -292.34C341.531 -322.403 331.028 -350.813 321.028 -376.827L323.915 -379.016C333.761 -353.403 344.128 -325.391 353.968 -295.703C356.603 -299.287 359.147 -302.901 361.601 -306.543C346.857 -362.074 328.04 -414.281 310.731 -459.308L313.618 -461.497C330.7 -417.062 349.347 -365.407 364.1 -310.31C368.036 -316.334 371.733 -322.433 375.199 -328.602C360.378 -409.274 333.166 -486.461 308.913 -549.55L311.8 -551.74C335.697 -489.575 362.659 -413.282 377.733 -333.199C378.43 -334.488 379.116 -335.78 379.793 -337.074C383.401 -343.972 386.733 -350.952 389.802 -358.007C381.025 -462.164 345.337 -565.374 314.451 -645.72L317.338 -647.909C347.629 -569.111 382.845 -467.61 392.532 -364.469C396.556 -374.286 400.086 -384.241 403.155 -394.311C403.309 -398.7 403.403 -403.096 403.439 -407.497C404.438 -528.345 362.01 -652.756 326.079 -746.224L328.966 -748.413C364.886 -654.974 407.73 -529.611 406.72 -407.443L406.718 -407.26C406.717 -407.11 406.716 -406.959 406.714 -406.809C415.701 -440.693 419.714 -475.745 420.006 -511.113C421.005 -631.962 378.577 -756.372 342.646 -849.841L345.532 -852.03ZM382.746 -202.246C383.431 -197.083 384.056 -191.913 384.619 -186.737C384.422 -187.395 384.225 -188.051 384.027 -188.707C383.165 -192.563 382.278 -196.407 381.37 -200.237C381.669 -201.357 381.964 -202.478 382.253 -203.6C382.417 -203.149 382.582 -202.698 382.746 -202.246ZM380.189 -209.229C380.024 -208.556 379.857 -207.883 379.688 -207.21C378.831 -210.703 377.957 -214.185 377.066 -217.654C378.105 -214.868 379.147 -212.06 380.189 -209.229ZM371.529 -242.078C372.686 -244.516 373.811 -246.963 374.904 -249.419C376.918 -239.258 378.745 -229.035 380.354 -218.769C377.386 -226.734 374.436 -234.51 371.529 -242.078ZM385.88 -203.761C385.464 -206.878 385.026 -209.992 384.568 -213.102C385.158 -215.668 385.721 -218.239 386.258 -220.816C386.295 -217.483 386.301 -214.152 386.273 -210.823C386.252 -208.222 386.21 -205.622 386.148 -203.025L385.88 -203.761ZM351.004 -285.45C356.335 -271.222 361.736 -256.372 367.05 -241.007L367.175 -241.263C362.669 -257.163 357.869 -272.75 352.911 -287.929C352.28 -287.101 351.644 -286.275 351.004 -285.45ZM355.427 -291.278C357.99 -294.733 360.469 -298.216 362.866 -301.728C366.827 -286.511 370.473 -271.054 373.688 -255.437C372.31 -252.239 370.878 -249.056 369.392 -245.89C364.962 -261.361 360.265 -276.52 355.427 -291.278ZM377.235 -254.78C379.422 -244.028 381.407 -233.198 383.152 -222.314C384.14 -227.071 385.036 -231.847 385.846 -236.64C385.386 -247.947 384.58 -259.263 383.467 -270.561C381.526 -265.264 379.451 -260.003 377.235 -254.78ZM365.383 -305.47C369.232 -290.814 372.795 -275.925 375.973 -260.871C378.365 -266.707 380.582 -272.592 382.632 -278.521C380.976 -293.409 378.804 -308.254 376.208 -322.991C372.811 -317.082 369.206 -311.24 365.383 -305.47ZM378.776 -327.544C380.027 -329.802 381.247 -332.069 382.438 -334.346C385.248 -339.719 387.893 -345.141 390.38 -350.609C391.358 -336.987 391.864 -323.358 391.826 -309.771C389.859 -301.753 387.621 -293.798 385.094 -285.915C383.4 -299.861 381.269 -313.755 378.776 -327.544ZM386.029 -277.805C388.042 -283.704 389.893 -289.645 391.587 -295.623C391.138 -281.286 390.053 -267.016 388.248 -252.871C387.678 -261.19 386.933 -269.505 386.029 -277.805ZM393.191 -356.966C394.096 -345.88 394.699 -334.781 394.961 -323.695C398.841 -342.599 401.288 -361.807 402.511 -381.175C399.722 -373.021 396.621 -364.947 393.191 -356.966ZM484.209 151.269C485.219 29.1011 442.375 -96.2621 406.455 -189.702L403.568 -187.512C439.499 -94.0438 481.927 30.3666 480.928 151.215C480.43 211.561 469.1 270.984 440.716 325.254C412.321 379.543 366.776 428.833 297.66 468.686C136.733 561.477 10.0811 518.256 -87.9092 484.816C-97.0058 481.711 -105.855 478.691 -114.463 475.872C-165.007 459.317 -207.616 449.518 -242.555 471.237C-277.625 493.037 -304.466 546.204 -324.302 653.481L-321.126 654.64C-301.363 547.759 -274.886 496.374 -241.227 475.451C-207.438 454.447 -165.906 463.755 -115.208 480.36C-106.612 483.176 -97.7645 486.196 -88.6622 489.303C9.35745 522.765 136.961 566.327 298.906 472.949C368.426 432.863 414.522 383.12 443.36 327.982C472.208 272.826 483.703 212.431 484.209 151.269ZM447.294 -144.374C483.214 -50.9341 526.058 74.4292 525.048 196.597C524.543 257.759 513.047 318.154 484.199 373.31C455.361 428.448 409.265 478.191 339.745 518.277C177.8 611.655 50.1968 568.093 -47.8229 534.631L-47.8391 534.626C-56.9356 531.52 -65.7775 528.502 -74.3683 525.688C-125.067 509.083 -166.598 499.775 -200.388 520.779C-234.047 541.702 -260.524 593.087 -280.287 699.968L-283.462 698.809C-263.626 591.532 -236.786 538.365 -201.716 516.565C-166.777 494.846 -124.168 504.645 -73.6232 521.2C-65.0161 524.019 -56.1665 527.039 -47.0699 530.144C50.9204 563.584 177.572 606.805 338.499 514.014C407.615 474.161 453.161 424.871 481.555 370.582C509.94 316.312 521.269 256.889 521.768 196.543C522.767 75.6947 480.338 -48.7158 444.407 -142.184L447.294 -144.374ZM569.678 236.118C570.688 113.95 527.844 -11.4131 491.924 -104.853L489.037 -102.663C524.968 -9.19476 567.397 115.216 566.398 236.064C565.899 296.41 554.57 355.833 526.185 410.103C497.791 464.392 452.245 513.682 383.129 553.535C222.202 646.326 95.5503 603.105 -2.44001 569.665C-11.5366 566.56 -20.3862 563.54 -28.9933 560.721C-79.5378 544.166 -122.147 534.367 -157.086 556.086C-192.156 577.886 -218.997 631.053 -238.833 738.331L-235.657 739.489C-215.894 632.608 -189.417 581.223 -155.758 560.3C-121.968 539.296 -80.4371 548.604 -29.7384 565.209C-21.1425 568.025 -12.2953 571.045 -3.19295 574.152C94.8267 607.614 222.43 651.176 384.375 557.798C453.895 517.712 499.991 467.969 528.829 412.831C557.677 357.675 569.173 297.28 569.678 236.118ZM538.824 -68.978C574.744 24.4615 617.588 149.825 616.578 271.992C616.073 333.155 604.577 393.55 575.729 448.706C546.891 503.843 500.795 553.587 431.275 593.673C269.33 687.051 141.726 643.489 43.7069 610.027C34.6046 606.919 25.7574 603.899 17.1615 601.084C-33.5373 584.478 -75.0684 575.17 -108.858 596.175C-142.517 617.097 -168.994 668.483 -188.757 775.364L-191.933 774.205C-172.097 666.928 -145.256 613.761 -110.186 591.961C-75.2469 570.242 -32.6379 580.041 17.9066 596.596C26.4502 599.394 35.2324 602.391 44.2586 605.47L44.3156 605.49L44.3438 605.499L44.3685 605.508L44.4371 605.531L44.4524 605.537L44.4598 605.539C142.45 638.98 269.102 682.201 430.029 589.41C499.145 549.557 544.69 500.267 573.085 445.978C601.469 391.708 612.799 332.284 613.297 271.939C614.296 151.09 571.868 26.6798 535.937 -66.7886L538.824 -68.978ZM664.567 306.077C665.577 183.91 622.733 58.5466 586.813 -34.8929L583.926 -32.7034C619.857 60.765 662.285 185.175 661.286 306.024C660.787 366.369 649.458 425.793 621.074 480.063C592.679 534.352 547.134 583.642 478.018 623.495C317.09 716.286 190.439 673.065 92.4487 639.624L92.4412 639.622L92.4259 639.616L92.3574 639.593L92.3326 639.584L92.3045 639.575L92.2474 639.555C83.2213 636.476 74.439 633.479 65.8954 630.681C15.3509 614.126 -27.258 604.327 -62.1972 626.046C-97.2673 647.846 -124.108 701.013 -143.944 808.29L-140.768 809.449C-121.006 702.568 -94.5282 651.183 -60.8694 630.26C-27.0796 609.255 14.4515 618.563 65.1503 635.169C73.7462 637.984 82.5935 641.004 91.6958 644.112C189.715 677.574 317.319 721.136 479.264 627.758C548.784 587.672 594.88 537.928 623.718 482.791C652.566 427.635 664.061 367.24 664.567 306.077ZM634.976 -1.11192C670.896 92.3276 713.74 217.691 712.73 339.858C712.224 401.021 700.729 461.416 671.881 516.572C643.043 571.709 596.947 621.453 527.427 661.539C365.482 754.917 237.878 711.355 139.859 677.893C130.757 674.785 121.909 671.765 113.313 668.95C62.6146 652.344 21.0836 643.036 -12.7063 664.041C-46.3651 684.964 -72.8425 736.349 -92.6053 843.23L-95.7808 842.071C-75.9447 734.794 -49.1041 681.627 -14.0341 659.827C20.9051 638.108 63.514 647.907 114.059 664.462C122.66 667.279 131.505 670.298 140.596 673.4L140.612 673.405C238.602 706.846 365.254 750.067 526.181 657.276C595.297 617.423 640.842 568.133 669.237 513.844C697.621 459.574 708.951 400.15 709.449 339.805C710.448 218.956 668.02 94.5459 632.089 1.0775L634.976 -1.11192ZM760.408 374.461C761.418 252.294 718.574 126.93 682.654 33.491L679.767 35.6804C715.698 129.149 758.127 253.559 757.128 374.408C756.629 434.753 745.3 494.177 716.915 548.447C688.521 602.736 642.975 652.026 573.859 691.879C412.932 784.67 286.28 741.449 188.29 708.008C179.194 704.904 170.344 701.884 161.737 699.065C111.192 682.51 68.5834 672.711 33.6443 694.43C-1.42585 716.23 -28.2664 769.397 -48.1024 876.674L-44.9269 877.832C-25.1641 770.952 1.31321 719.566 34.972 698.644C68.7619 677.639 110.293 686.947 160.992 703.553C169.583 706.366 178.424 709.385 187.521 712.49L187.537 712.496C285.557 745.958 413.16 789.52 575.105 696.142C644.625 656.056 690.721 606.312 719.559 551.175C748.407 496.019 759.903 435.624 760.408 374.461ZM729.332 69.7287C765.252 163.168 808.096 288.531 807.086 410.699C806.581 471.861 795.085 532.256 766.237 587.413C737.399 642.55 691.303 692.293 621.783 732.379C459.838 825.757 332.235 782.196 234.215 748.734L234.207 748.731C225.108 745.624 216.263 742.605 207.67 739.79C156.971 723.185 115.44 713.877 81.6499 734.881C47.9911 755.804 21.5138 807.189 1.75095 914.07L-1.42454 912.912C18.4115 805.635 45.252 752.467 80.3222 730.667C115.261 708.949 157.87 718.748 208.415 735.303C217.022 738.122 225.871 741.142 234.968 744.246C332.958 777.686 459.61 820.908 620.537 728.116C689.653 688.263 735.199 638.973 763.593 584.684C791.978 530.414 803.307 470.991 803.806 410.645C804.805 289.797 762.376 165.386 726.445 71.9181L729.332 69.7287ZM852.397 449.133C853.407 326.965 810.563 201.602 774.643 108.163L771.756 110.352C807.687 203.82 850.116 328.231 849.117 449.079C848.618 509.425 837.289 568.848 808.904 623.118C780.51 677.407 734.964 726.697 665.848 766.55C504.921 859.342 378.269 816.12 280.279 782.68C271.182 779.576 262.333 776.556 253.726 773.737C203.181 757.181 160.572 747.383 125.633 769.101C90.563 790.901 63.7225 844.069 43.8864 951.346L47.0619 952.504C66.8248 845.623 93.302 794.238 126.961 773.315C160.751 752.311 202.282 761.619 252.981 778.224C261.574 781.039 270.419 784.058 279.518 787.165L279.526 787.167C377.546 820.63 505.149 864.191 667.094 770.813C736.614 730.727 782.71 680.984 811.548 625.847C840.396 570.69 851.892 510.295 852.397 449.133ZM818.331 149.161C854.251 242.6 897.095 367.964 896.085 490.131C895.58 551.294 884.084 611.689 855.236 666.845C826.398 721.982 780.302 771.726 710.782 811.811C548.837 905.189 421.234 861.628 323.214 828.166C314.112 825.058 305.265 822.038 296.669 819.223C245.97 802.617 204.439 793.309 170.649 814.314C136.99 835.236 110.513 886.622 90.7501 993.502L87.5745 992.344C107.411 885.067 134.251 831.9 169.321 810.1C204.26 788.381 246.869 798.18 297.414 814.735C306.017 817.553 314.863 820.571 323.955 823.674L323.967 823.678C421.957 857.118 548.609 900.34 709.536 807.548C778.652 767.696 824.198 718.405 852.592 664.117C880.977 609.847 892.306 550.423 892.805 490.078C893.804 369.229 851.375 244.819 815.444 151.35L818.331 149.161Z" fill="url(#paint0_radial_1_443)" fill-opacity="0.16"></path><defs><radialGradient id="paint0_radial_1_443" cx="0" cy="0" r="1" gradientUnits="userSpaceOnUse" gradientTransform="translate(331.852 328.55) rotate(139.212) scale(707.702 803.057)"><stop stop-color="white"></stop><stop offset="1" stop-color="#1E1E1E" stop-opacity="0"></stop><stop offset="1" stop-color="#0E0E35" stop-opacity="0"></stop><stop offset="1" stop-color="white" stop-opacity="0"></stop></radialGradient></defs></svg>